<?xml version="1.0" encoding="UTF-8"?>
<!DOCTYPE svg PUBLIC "-//W3C//DTD SVG 1.1//EN" "http://www.w3.org/Graphics/SVG/1.1/DTD/svg11.dtd">
<svg xmlns="http://www.w3.org/2000/svg" version="1.1" width="200px" height="200px" style="shape-rendering:geometricPrecision; text-rendering:geometricPrecision; image-rendering:optimizeQuality; fill-rule:evenodd; clip-rule:evenodd" xmlns:xlink="http://www.w3.org/1999/xlink">
<g><path style="opacity:1" fill="#fffdfb" d="M -0.5,-0.5 C 8.5,-0.5 17.5,-0.5 26.5,-0.5C 12.5038,3.49619 3.50381,12.4962 -0.5,26.5C -0.5,17.5 -0.5,8.5 -0.5,-0.5 Z"/></g>
<g><path style="opacity:1" fill="#fffdfa" d="M 172.5,-0.5 C 181.5,-0.5 190.5,-0.5 199.5,-0.5C 199.5,8.5 199.5,17.5 199.5,26.5C 195.5,12.5 186.5,3.5 172.5,-0.5 Z"/></g>
<g><path style="opacity:1" fill="#fbce41" d="M 26.5,-0.5 C 75.1667,-0.5 123.833,-0.5 172.5,-0.5C 186.5,3.5 195.5,12.5 199.5,26.5C 199.5,75.1667 199.5,123.833 199.5,172.5C 195.5,186.5 186.5,195.5 172.5,199.5C 123.833,199.5 75.1667,199.5 26.5,199.5C 12.5,195.5 3.5,186.5 -0.5,172.5C -0.5,123.833 -0.5,75.1667 -0.5,26.5C 3.50381,12.4962 12.5038,3.49619 26.5,-0.5 Z"/></g>
<g><path style="opacity:1" fill="#313232" d="M 32.5,24.5 C 48.1808,24.1673 63.8475,24.5006 79.5,25.5C 66.2944,53.1406 53.2944,80.8073 40.5,108.5C 39.9569,108.56 39.6236,108.893 39.5,109.5C 76.9978,110.83 114.331,110.83 151.5,109.5C 152.458,109.047 153.292,108.381 154,107.5C 155.681,98.9006 156.848,90.2339 157.5,81.5C 158.451,80.0813 158.784,78.4147 158.5,76.5C 126.482,77.1593 94.8157,76.4926 63.5,74.5C 66.0138,67.3149 69.3471,60.4816 73.5,54C 102.839,53.8332 132.172,53.3332 161.5,52.5C 162.766,50.0276 162.766,47.6943 161.5,45.5C 133.833,44.8333 106.167,44.1667 78.5,43.5C 79.5877,41.4175 80.5877,39.2508 81.5,37C 108.5,36.3333 135.5,36.3333 162.5,37C 167.754,38.0863 170.754,41.253 171.5,46.5C 169.107,63.8576 166.607,81.191 164,98.5C 164.052,105.78 161.552,111.947 156.5,117C 155.552,117.483 154.552,117.649 153.5,117.5C 111.153,118.161 69.1534,117.495 27.5,115.5C 40.4649,88.1863 53.4649,60.8529 66.5,33.5C 55.3456,32.5052 44.0123,32.1719 32.5,32.5C 32.5,29.8333 32.5,27.1667 32.5,24.5 Z"/></g>
<g><path style="opacity:1" fill="#574f35" d="M 32.5,24.5 C 32.5,27.1667 32.5,29.8333 32.5,32.5C 44.0123,32.1719 55.3456,32.5052 66.5,33.5C 54.8333,33.5 43.1667,33.5 31.5,33.5C 31.19,30.2869 31.5233,27.2869 32.5,24.5 Z"/></g>
<g><path style="opacity:1" fill="#9f8a3a" d="M 78.5,43.5 C 106.167,44.1667 133.833,44.8333 161.5,45.5C 133.492,45.8331 105.492,45.4998 77.5,44.5C 77.6236,43.8933 77.9569,43.56 78.5,43.5 Z"/></g>
<g><path style="opacity:1" fill="#7b6c38" d="M 63.5,74.5 C 94.8157,76.4926 126.482,77.1593 158.5,76.5C 158.784,78.4147 158.451,80.0813 157.5,81.5C 157.5,80.1667 157.5,78.8333 157.5,77.5C 125.833,77.5 94.1667,77.5 62.5,77.5C 62.2627,76.209 62.596,75.209 63.5,74.5 Z"/></g>
<g><path style="opacity:1" fill="#313132" d="M 87.5,82.5 C 97.5056,82.3335 107.506,82.5002 117.5,83C 118.38,84.3561 118.714,85.8561 118.5,87.5C 108.161,87.6665 97.828,87.4998 87.5,87C 86.2721,85.5098 86.2721,84.0098 87.5,82.5 Z"/></g>
<g><path style="opacity:1" fill="#303132" d="M 125.5,82.5 C 129.846,82.3343 134.179,82.501 138.5,83C 139.833,84.3333 139.833,85.6667 138.5,87C 134.167,87.6667 129.833,87.6667 125.5,87C 124.272,85.5098 124.272,84.0098 125.5,82.5 Z"/></g>
<g><path style="opacity:1" fill="#3f3c34" d="M 78.5,95.5 C 97.8362,95.3334 117.17,95.5 136.5,96C 138.394,97.0793 138.727,98.4126 137.5,100C 117.836,100.5 98.1695,100.667 78.5,100.5C 78.5,98.8333 78.5,97.1667 78.5,95.5 Z"/></g>
<g><path style="opacity:1" fill="#4a4533" d="M 40.5,108.5 C 77.3296,109.498 114.33,109.832 151.5,109.5C 114.331,110.83 76.9978,110.83 39.5,109.5C 39.6236,108.893 39.9569,108.56 40.5,108.5 Z"/></g>
<g><path style="opacity:1" fill="#645a36" d="M 27.5,115.5 C 69.1534,117.495 111.153,118.161 153.5,117.5C 111.337,118.499 69.0033,118.832 26.5,118.5C 26.2627,117.209 26.596,116.209 27.5,115.5 Z"/></g>
<g><path style="opacity:1" fill="#2f2e32" d="M 161.5,131.5 C 165.06,133.316 165.227,135.316 162,137.5C 161.097,136.299 159.931,135.465 158.5,135C 159.71,133.961 160.71,132.794 161.5,131.5 Z"/></g>
<g><path style="opacity:1" fill="#393733" d="M 104.5,142.5 C 108.697,144.154 109.031,146.154 105.5,148.5C 102.025,146.916 101.692,144.916 104.5,142.5 Z"/></g>
<g><path style="opacity:1" fill="#353433" d="M 150.5,144.5 C 152.124,144.36 153.29,145.027 154,146.5C 157.928,159.309 153.761,168.309 141.5,173.5C 140.417,172.635 140.251,171.635 141,170.5C 151.626,165.102 154.459,157.102 149.5,146.5C 149.863,145.817 150.196,145.15 150.5,144.5 Z"/></g>
<g><path style="opacity:1" fill="#373533" d="M 163.5,144.5 C 169.382,150.912 169.882,157.912 165,165.5C 162.21,169.126 158.71,171.792 154.5,173.5C 153.5,173.167 152.833,172.5 152.5,171.5C 157.144,168.69 160.977,165.023 164,160.5C 164.916,155.821 164.416,151.321 162.5,147C 162.743,146.098 163.077,145.265 163.5,144.5 Z"/></g>
<g><path style="opacity:1" fill="#363433" d="M 60.5,125.5 C 61.5,125.5 62.5,125.5 63.5,125.5C 63.1684,134.857 63.5017,144.19 64.5,153.5C 69.897,154.943 75.2304,154.777 80.5,153C 81.0968,151.938 81.4302,150.772 81.5,149.5C 80.8295,146.154 80.1628,142.821 79.5,139.5C 82.0495,139.561 83.5495,140.894 84,143.5C 84.6667,147.167 84.6667,150.833 84,154.5C 82.5905,155.787 81.0905,156.954 79.5,158C 74.5,158.667 69.5,158.667 64.5,158C 63.3333,156.833 62.1667,155.667 61,154.5C 60.5002,144.839 60.3335,135.172 60.5,125.5 Z"/></g>
<g><path style="opacity:1" fill="#363333" d="M 81.5,163.5 C 85.3167,165.586 85.3167,167.586 81.5,169.5C 80.1667,168.833 79.1667,167.833 78.5,166.5C 79.7701,165.712 80.7701,164.712 81.5,163.5 Z"/></g>
<g><path style="opacity:1" fill="#323133" d="M 124.5,163.5 C 129.197,164.874 129.531,166.874 125.5,169.5C 124.618,168.24 123.618,167.074 122.5,166C 123.756,165.583 124.423,164.75 124.5,163.5 Z"/></g>
<g><path style="opacity:1" fill="#363533" d="M 71.5,163.5 C 76.1972,164.874 76.5305,166.874 72.5,169.5C 69.025,167.916 68.6917,165.916 71.5,163.5 Z"/></g>
<g><path style="opacity:1" fill="#353433" d="M 137.5,139.5 C 140.05,139.561 141.55,140.894 142,143.5C 143.102,148.184 142.436,152.517 140,156.5C 133.667,159.167 127.333,159.167 121,156.5C 119.242,171.313 111.075,176.48 96.5,172C 89.9114,167.573 87.7447,161.406 90,153.5C 90.7324,150.289 92.5657,148.289 95.5,147.5C 93.7023,152.689 92.869,158.022 93,163.5C 98.3575,170.989 105.191,172.489 113.5,168C 117.052,163.778 118.219,158.945 117,153.5C 115.691,151.253 115.025,148.92 115,146.5C 115.414,146.043 115.914,145.709 116.5,145.5C 118.297,148.795 120.63,151.628 123.5,154C 127.833,154.667 132.167,154.667 136.5,154C 138.954,153.057 139.954,151.224 139.5,148.5C 139.121,145.418 138.454,142.418 137.5,139.5 Z"/></g>
<g><path style="opacity:1" fill="#343333" d="M 132.5,163.5 C 137.197,164.874 137.531,166.874 133.5,169.5C 131.261,167.867 130.928,165.867 132.5,163.5 Z"/></g>
<g><path style="opacity:1" fill="#3d3934" d="M 52.5,124.5 C 53.8333,124.5 55.1667,124.5 56.5,124.5C 56.6666,137.837 56.4999,151.171 56,164.5C 50.8033,172.575 43.6366,174.742 34.5,171C 33.3333,169.833 32.1667,168.667 31,167.5C 29.5076,162.589 29.1743,157.589 30,152.5C 31.1531,150.503 32.6531,150.17 34.5,151.5C 33.3897,156.111 33.2231,160.778 34,165.5C 40.2557,170.944 46.2557,170.61 52,164.5C 52.4999,151.171 52.6666,137.837 52.5,124.5 Z"/></g>
<g><path style="opacity:1" fill="#fffdfa" d="M -0.5,172.5 C 3.5,186.5 12.5,195.5 26.5,199.5C 17.5,199.5 8.5,199.5 -0.5,199.5C -0.5,190.5 -0.5,181.5 -0.5,172.5 Z"/></g>
<g><path style="opacity:1" fill="#313132" d="M 76.5,170.5 C 81.0165,171.625 81.3498,173.292 77.5,175.5C 74.1396,174.209 73.8063,172.543 76.5,170.5 Z"/></g>
<g><path style="opacity:1" fill="#fffdfa" d="M 199.5,172.5 C 199.5,181.5 199.5,190.5 199.5,199.5C 190.5,199.5 181.5,199.5 172.5,199.5C 186.5,195.5 195.5,186.5 199.5,172.5 Z"/></g>
</svg>
